<svg id="timeline-0" xmlns="http://www.w3.org/2000/svg" width="1000" height="164" viewBox="0 0 1040.000000 164.000000">
<defs>

<style>
.tl-bg {
  fill: #ffffff;
}

.tl-event {
  cursor: pointer;
}

.tl-event rect {
  fill: rgba(115, 105, 250, 0.8);
}

.tl-event:hover rect {
  fill: rgba(120, 110, 255, 1);
  stroke: #000000;
  stroke-width: 1;
}

.tl-event text {
  fill: #ffffff;
}

.tl-era rect {
  fill: rgba(200, 240, 240, 0.35);
  stroke: rgba(200, 240, 240, 0.95);
  stroke-width: 1;
}

.tl-era text {
  fill: #000000;
}

.tl-axis,
.tl-ticks line {
  stroke: #333333;
  stroke-width: 2;
}

.tl-ticks text {
  fill: #333333;
}
</style>
</defs>
<rect class="tl-bg" x="0" y="0" width="1040.000000" height="164" fill="none" /><g class="tl-era">
<rect x="10.000000" y="15" width="1000.000000" height="119" stroke-dasharray="0,1000.000000,119,0" />
<text x="510.000000" y="21.666667" font-family="monospace" font-size="9px" dominant-baseline="middle" text-anchor="middle">Process</text>
</g>
<g class="tl-event">
<rect x="10.000000" y="37" width="666.666667" height="30" />
<text x="343.333333" y="52.000000" font-family="monospace" font-size="15px" dominant-baseline="middle" text-anchor="middle">download</text>
</g>
<g class="tl-event">
<rect x="676.666667" y="37" width="333.333333" height="30" />
<text x="843.333333" y="52.000000" font-family="monospace" font-size="15px" dominant-baseline="middle" text-anchor="middle">parse</text>
</g>
<g class="tl-era">
<rect x="10.000000" y="72" width="666.666667" height="62" stroke-dasharray="0,666.666667,62,0" />
<text x="343.333333" y="78.666667" font-family="monospace" font-size="9px" dominant-baseline="middle" text-anchor="middle">Save</text>
</g>
<g class="tl-event">
<rect x="10.000000" y="94" width="500.000000" height="30" />
<text x="260.000000" y="109.000000" font-family="monospace" font-size="15px" dominant-baseline="middle" text-anchor="middle">compress</text>
</g>
<g class="tl-event">
<rect x="510.000000" y="94" width="166.666667" height="30" />
<text x="593.333333" y="109.000000" font-family="monospace" font-size="15px" dominant-baseline="middle" text-anchor="middle">move</text>
</g>
<line class="tl-axis" x1="10.000000" y1="134" x2="1010.000000" y2="134"/>
<g class="tl-ticks">
<line x1="10.000000" y1="15" x2="10.000000" y2="139"/>
<text x="10.000000" y="154" font-family="monospace" font-size="12" text-anchor="middle">0s</text>
<line x1="135.000000" y1="129" x2="135.000000" y2="139"/>
<text x="135.000000" y="154" font-family="monospace" font-size="12" text-anchor="middle">375ms</text>
<line x1="260.000000" y1="129" x2="260.000000" y2="139"/>
<text x="260.000000" y="154" font-family="monospace" font-size="12" text-anchor="middle">750ms</text>
<line x1="385.000000" y1="129" x2="385.000000" y2="139"/>
<text x="385.000000" y="154" font-family="monospace" font-size="12" text-anchor="middle">1.13s</text>
<line x1="510.000000" y1="129" x2="510.000000" y2="139"/>
<text x="510.000000" y="154" font-family="monospace" font-size="12" text-anchor="middle">1.5s</text>
<line x1="635.000000" y1="129" x2="635.000000" y2="139"/>
<text x="635.000000" y="154" font-family="monospace" font-size="12" text-anchor="middle">1.88s</text>
<line x1="760.000000" y1="129" x2="760.000000" y2="139"/>
<text x="760.000000" y="154" font-family="monospace" font-size="12" text-anchor="middle">2.25s</text>
<line x1="885.000000" y1="129" x2="885.000000" y2="139"/>
<text x="885.000000" y="154" font-family="monospace" font-size="12" text-anchor="middle">2.63s</text>
<line x1="1010.000000" y1="15" x2="1010.000000" y2="139"/>
<text x="1010.000000" y="154" font-family="monospace" font-size="12" text-anchor="middle">3s</text>
</g>
</svg>