<svg id="timeline-0" xmlns="http://www.w3.org/2000/svg" width="1000" height="164" viewBox="0 0 1040.000000 164.000000" preserveAspectRatio="xMinYMin meet">
  <defs>
    <style>.tl-bg {&#xA;  fill: #ffffff;&#xA;}&#xA;&#xA;.tl-event {&#xA;  cursor: pointer;&#xA;}&#xA;&#xA;.tl-event rect {&#xA;  fill: rgba(115, 105, 250, 0.8);&#xA;}&#xA;&#xA;.tl-event:hover rect {&#xA;  fill: rgba(120, 110, 255, 1);&#xA;  stroke: #000000;&#xA;  stroke-width: 1;&#xA;}&#xA;&#xA;.tl-event text {&#xA;  fill: #ffffff;&#xA;}&#xA;&#xA;.tl-era rect {&#xA;  fill: rgba(200, 240, 240, 0.35);&#xA;  stroke: rgba(200, 240, 240, 0.95);&#xA;  stroke-width: 1;&#xA;}&#xA;&#xA;.tl-era text {&#xA;  fill: #000000;&#xA;}&#xA;&#xA;.tl-axis,&#xA;.tl-ticks line {&#xA;  stroke: #333333;&#xA;  stroke-width: 2;&#xA;}&#xA;&#xA;.tl-ticks text {&#xA;  fill: #333333;&#xA;}&#xA;</style>
  </defs>
  <rect class="tl-bg" x="0" y="0" width="1040" height="164" fill="none"></rect>
  <g class="tl-era">
    <rect x="10" y="15" width="1000" height="119" stroke-dasharray="0,1000.000000,119,0"></rect>
    <text x="510" y="21.666666666666668" font-size="9" font-family="monospace" text-anchor="middle" dominant-baseline="middle">Process</text>
  </g>
  <g class="tl-event">
    <rect x="10" y="37" width="666.6666666666666" height="30"></rect>
    <text x="343.3333333333333" y="52" font-size="15" font-family="monospace" text-anchor="middle" dominant-baseline="middle">download</text>
  </g>
  <g class="tl-event">
    <rect x="676.6666666666666" y="37" width="333.3333333333333" height="30"></rect>
    <text x="843.3333333333333" y="52" font-size="15" font-family="monospace" text-anchor="middle" dominant-baseline="middle">parse</text>
  </g>
  <g class="tl-era">
    <rect x="10" y="72" width="666.6666666666666" height="62" stroke-dasharray="0,666.666667,62,0"></rect>
    <text x="343.3333333333333" y="78.66666666666667" font-size="9" font-family="monospace" text-anchor="middle" dominant-baseline="middle">Save</text>
  </g>
  <g class="tl-event">
    <rect x="10" y="94" width="500" height="30"></rect>
    <text x="260" y="109" font-size="15" font-family="monospace" text-anchor="middle" dominant-baseline="middle">compress</text>
  </g>
  <g class="tl-event">
    <rect x="510" y="94" width="166.66666666666666" height="30"></rect>
    <text x="593.3333333333334" y="109" font-size="15" font-family="monospace" text-anchor="middle" dominant-baseline="middle">move</text>
  </g>
  <line class="tl-axis" x1="10" y1="134" x2="1010" y2="134"></line>
  <g class="tl-ticks">
    <line x1="10" y1="15" x2="10" y2="139"></line>
    <text x="10" y="154" font-size="12" font-family="monospace" text-anchor="middle">0s</text>
    <line x1="135" y1="129" x2="135" y2="139"></line>
    <text x="135" y="154" font-size="12" font-family="monospace" text-anchor="middle">375ms</text>
    <line x1="260" y1="129" x2="260" y2="139"></line>
    <text x="260" y="154" font-size="12" font-family="monospace" text-anchor="middle">750ms</text>
    <line x1="385" y1="129" x2="385" y2="139"></line>
    <text x="385" y="154" font-size="12" font-family="monospace" text-anchor="middle">1.13s</text>
    <line x1="510" y1="129" x2="510" y2="139"></line>
    <text x="510" y="154" font-size="12" font-family="monospace" text-anchor="middle">1.5s</text>
    <line x1="635" y1="129" x2="635" y2="139"></line>
    <text x="635" y="154" font-size="12" font-family="monospace" text-anchor="middle">1.88s</text>
    <line x1="760" y1="129" x2="760" y2="139"></line>
    <text x="760" y="154" font-size="12" font-family="monospace" text-anchor="middle">2.25s</text>
    <line x1="885" y1="129" x2="885" y2="139"></line>
    <text x="885" y="154" font-size="12" font-family="monospace" text-anchor="middle">2.63s</text>
    <line x1="1010" y1="15" x2="1010" y2="139"></line>
    <text x="1010" y="154" font-size="12" font-family="monospace" text-anchor="middle">3s</text>
  </g>
</svg>