<svg id="timeline-0" xmlns="http://www.w3.org/2000/svg" width="1000" height="164" viewBox="0 0 1000 164">
<defs>

<style>
.tl-bg {
  fill: #ffffff;
}

.tl-event {
  cursor: pointer;
}

.tl-event rect {
  fill: rgba(115, 105, 250, 0.8);
}

.tl-event:hover rect {
  fill: rgba(120, 110, 255, 1);
  stroke: #000000;
  stroke-width: 1;
}

.tl-event text {
  fill: #ffffff;
}

.tl-era rect {
  fill: rgba(200, 240, 240, 0.35);
  stroke: rgba(200, 240, 240, 0.95);
  stroke-width: 1;
}

.tl-era text {
  fill: #000000;
}

.tl-axis,
.tl-ticks line {
  stroke: #333333;
  stroke-width: 2;
}

.tl-ticks text {
  fill: #333333;
}
</style>
</defs>
<rect class="tl-bg" x="0" y="0" width="1000" height="164" fill="none" /><g class="tl-era">
<rect x="10.000000" y="15" width="960.000000" height="119" stroke-dasharray="0,960.000000,119,0" />
<text x="490.000000" y="21.666667" font-family="monospace" font-size="9px" dominant-baseline="middle" text-anchor="middle">Process</text>
</g>
<g class="tl-event">
<rect x="10.000000" y="37" width="640.000000" height="30" />
<text x="330.000000" y="52.000000" font-family="monospace" font-size="15px" dominant-baseline="middle" text-anchor="middle">download</text>
</g>
<g class="tl-event">
<rect x="650.000000" y="37" width="320.000000" height="30" />
<text x="810.000000" y="52.000000" font-family="monospace" font-size="15px" dominant-baseline="middle" text-anchor="middle">parse</text>
</g>
<g class="tl-era">
<rect x="10.000000" y="72" width="640.000000" height="62" stroke-dasharray="0,640.000000,62,0" />
<text x="330.000000" y="78.666667" font-family="monospace" font-size="9px" dominant-baseline="middle" text-anchor="middle">Save</text>
</g>
<g class="tl-event">
<rect x="10.000000" y="94" width="480.000000" height="30" />
<text x="250.000000" y="109.000000" font-family="monospace" font-size="15px" dominant-baseline="middle" text-anchor="middle">compress</text>
</g>
<g class="tl-event">
<rect x="490.000000" y="94" width="160.000000" height="30" />
<text x="570.000000" y="109.000000" font-family="monospace" font-size="15px" dominant-baseline="middle" text-anchor="middle">move</text>
</g>
<line class="tl-axis" x1="10" y1="134" x2="970" y2="134"/>
<g class="tl-ticks">
<line x1="10.000000" y1="15" x2="10.000000" y2="139"/>
<text x="10.000000" y="154" font-family="monospace" font-size="12" text-anchor="middle">0s</text>
<line x1="130.000000" y1="129" x2="130.000000" y2="139"/>
<text x="130.000000" y="154" font-family="monospace" font-size="12" text-anchor="middle">375ms</text>
<line x1="250.000000" y1="129" x2="250.000000" y2="139"/>
<text x="250.000000" y="154" font-family="monospace" font-size="12" text-anchor="middle">750ms</text>
<line x1="370.000000" y1="129" x2="370.000000" y2="139"/>
<text x="370.000000" y="154" font-family="monospace" font-size="12" text-anchor="middle">1.13s</text>
<line x1="490.000000" y1="129" x2="490.000000" y2="139"/>
<text x="490.000000" y="154" font-family="monospace" font-size="12" text-anchor="middle">1.5s</text>
<line x1="610.000000" y1="129" x2="610.000000" y2="139"/>
<text x="610.000000" y="154" font-family="monospace" font-size="12" text-anchor="middle">1.88s</text>
<line x1="730.000000" y1="129" x2="730.000000" y2="139"/>
<text x="730.000000" y="154" font-family="monospace" font-size="12" text-anchor="middle">2.25s</text>
<line x1="850.000000" y1="129" x2="850.000000" y2="139"/>
<text x="850.000000" y="154" font-family="monospace" font-size="12" text-anchor="middle">2.63s</text>
<line x1="970.000000" y1="15" x2="970.000000" y2="139"/>
<text x="970.000000" y="154" font-family="monospace" font-size="12" text-anchor="middle">3s</text>
</g>
</svg>